<svg width="21" height="22" viewBox="0 0 21 22" fill="none" xmlns="http://www.w3.org/2000/svg">
<g id="tabler:heart">
<path id="Vector" d="M17.0624 11.5007L10.4999 18.0002L3.9374 11.5007C3.50454 11.0795 3.16358 10.5732 2.936 10.0138C2.70842 9.45432 2.59914 8.8538 2.61504 8.25003C2.63095 7.64627 2.77169 7.05233 3.02841 6.50564C3.28513 5.95894 3.65227 5.47131 4.1067 5.07347C4.56113 4.67563 5.09301 4.37619 5.66886 4.19401C6.2447 4.01183 6.85203 3.95085 7.45259 4.01492C8.05316 4.07898 8.63396 4.2667 9.15841 4.56626C9.68287 4.86581 10.1396 5.27072 10.4999 5.75547C10.8617 5.27424 11.319 4.87287 11.8431 4.57649C12.3672 4.28012 12.9468 4.09511 13.5457 4.03305C14.1446 3.97098 14.7498 4.0332 15.3236 4.21581C15.8973 4.39842 16.4272 4.69748 16.88 5.09428C17.3328 5.49109 17.6989 5.97709 17.9553 6.52187C18.2116 7.06665 18.3528 7.65849 18.3699 8.26034C18.387 8.86218 18.2797 9.46108 18.0548 10.0196C17.8298 10.578 17.4919 11.0841 17.0624 11.506" stroke="white" stroke-width="1.5" stroke-linecap="round" stroke-linejoin="round"/>
</g>
</svg>
